# xmcd
#
# Track frame offsets: 
#        225
#        19317
#        35051
#        54514
#        71662
#        91659
#        112933
#        126741
#        152853
#        168857
#        187680
#        230284
#        249067
#        265391
#        285570
#        299589
#
# Disc length: 4211 seconds
#
# Revision: 0
# Processed by: cddbd v1.5.1PL0 Copyright (c) Steve Scherf et al.
# Submitted via: ExactAudioCopy v0.95a5
#
DISCID=de107010
DTITLE=古筝 - 高山流水－B
DYEAR=1900
DGENRE=民乐
TTITLE0=平湖秋月
TTITLE1=浏阳河
TTITLE2=将军令
TTITLE3=风摆翠竹
TTITLE4=山丹丹花开红艳艳
TTITLE5=东湖渔歌
TTITLE6=打雁
TTITLE7=春天来了
TTITLE8=梁祝
TTITLE9=悲翠登谭
TTITLE10=月儿高
TTITLE11=蝶恋花
TTITLE12=草原之夜
TTITLE13=葬花吟
TTITLE14=送别
TTITLE15=月亮代表我的心
EXTD=
EXTT0=
EXTT1=
EXTT2=
EXTT3=
EXTT4=
EXTT5=
EXTT6=
EXTT7=
EXTT8=
EXTT9=
EXTT10=
EXTT11=
EXTT12=
EXTT13=
EXTT14=
EXTT15=
PLAYORDER=
